# xmcd
# 
# Track frame offsets:
#     150
#     20219
#     36053
#     55812
#     69510
#     107215
#     125408
#     147068
#     169573
#     185398
#     200072
#     213933
#     236673
#     249727
# 
# Disc length: 3633
# 
# Revision: 2
# Processed by: cddbd v1.5.2PL0 Copyright (c) Steve Scherf et al.
# Submitted via: fre:ac v1.0.31
# 
DISCID=cc0e2f0e
DTITLE=久木田薫 - GHIBLI the Classics
DYEAR=2005
DGENRE=Soundtrack
TTITLE0=さくらんぼの実る頃…「紅の豚」
TTITLE1=君をのせて…「天空の城ラピュタ」
TTITLE2=アドリアの海へ〜マルコとジーナのテーマ…「紅の豚」
TTITLE3=風の谷のナウシカ…「風の谷のナウシカ」
TTITLE4=ナウシカ・メドレー…「風の谷のナウシカ」
TTITLE5=天空の城ラピュタ…「天空の城ラピュタ」
TTITLE6=もののけ姫…「もののけ姫」
TTITLE7=やさしさに包まれたなら…「魔女の宅急便」
TTITLE8=風の通り道…「となりのトトロ」
TTITLE9=となりのトトロ…「となりのトトロ」
TTITLE10=いつも何度でも…「千と千尋の神隠し」
TTITLE11=千と千尋の神隠し・メドレー…「千と千尋の神隠し」
TTITLE12=はにゅうの宿…「火垂の墓」
TTITLE13=世界の約束…「ハウルの動く城」
EXTD=YEAR: 2005
EXTT0=
EXTT1=
EXTT2=
EXTT3=
EXTT4=
EXTT5=
EXTT6=
EXTT7=
EXTT8=
EXTT9=
EXTT10=
EXTT11=
EXTT12=
EXTT13=
PLAYORDER=
